<mxfile host="www.draw.io" modified="2019-12-26T08:54:07.300Z" agent="Mozilla/5.0 (Windows NT 6.1; Win64; x64) AppleWebKit/537.36 (KHTML, like Gecko) Chrome/79.0.3945.88 Safari/537.36" etag="FcwFL2pSu8nENDZBvDpV" version="12.4.3" type="github" pages="1">
  <diagram id="fOWbsUfSva2gWS7y6upM" name="Page-1">
    <mxGraphModel dx="1422" dy="762" grid="1" gridSize="10" guides="1" tooltips="1" connect="1" arrows="1" fold="1" page="1" pageScale="1" pageWidth="827" pageHeight="1169" math="0" shadow="0">
      <root>
        <mxCell id="0"/>
        <mxCell id="1" parent="0"/>
        <mxCell id="OvlyZ-eLFth6ncI0WDdz-53" value="Pool" style="swimlane;html=1;childLayout=stackLayout;resizeParent=1;resizeParentMax=0;startSize=20;horizontal=0;horizontalStack=1;fillColor=none;" vertex="1" parent="1">
          <mxGeometry x="460" y="410" width="660" height="600" as="geometry"/>
        </mxCell>
        <mxCell id="OvlyZ-eLFth6ncI0WDdz-54" value="标签页控件" style="swimlane;html=1;startSize=20;" vertex="1" parent="OvlyZ-eLFth6ncI0WDdz-53">
          <mxGeometry x="20" width="160" height="600" as="geometry"/>
        </mxCell>
        <mxCell id="OvlyZ-eLFth6ncI0WDdz-64" value="" style="edgeStyle=orthogonalEdgeStyle;rounded=0;orthogonalLoop=1;jettySize=auto;html=1;" edge="1" parent="OvlyZ-eLFth6ncI0WDdz-54" source="OvlyZ-eLFth6ncI0WDdz-56" target="OvlyZ-eLFth6ncI0WDdz-63">
          <mxGeometry relative="1" as="geometry"/>
        </mxCell>
        <mxCell id="OvlyZ-eLFth6ncI0WDdz-56" value="开始" style="rounded=1;whiteSpace=wrap;html=1;fillColor=none;" vertex="1" parent="OvlyZ-eLFth6ncI0WDdz-54">
          <mxGeometry x="20" y="40" width="120" height="60" as="geometry"/>
        </mxCell>
        <mxCell id="OvlyZ-eLFth6ncI0WDdz-63" value="构造标签页控件、子标签、外部控件三者关联关系" style="rounded=0;whiteSpace=wrap;html=1;fillColor=none;" vertex="1" parent="OvlyZ-eLFth6ncI0WDdz-54">
          <mxGeometry x="20" y="144" width="120" height="60" as="geometry"/>
        </mxCell>
        <mxCell id="OvlyZ-eLFth6ncI0WDdz-69" value="子标签" style="swimlane;html=1;startSize=20;" vertex="1" parent="OvlyZ-eLFth6ncI0WDdz-53">
          <mxGeometry x="180" width="160" height="600" as="geometry">
            <mxRectangle x="20" width="30" height="480" as="alternateBounds"/>
          </mxGeometry>
        </mxCell>
        <mxCell id="OvlyZ-eLFth6ncI0WDdz-57" value="页面" style="swimlane;html=1;startSize=20;" vertex="1" parent="OvlyZ-eLFth6ncI0WDdz-53">
          <mxGeometry x="340" width="160" height="600" as="geometry">
            <mxRectangle x="20" width="30" height="480" as="alternateBounds"/>
          </mxGeometry>
        </mxCell>
        <mxCell id="OvlyZ-eLFth6ncI0WDdz-72" value="通过状态管理服务注册事件集合" style="rounded=0;whiteSpace=wrap;html=1;fillColor=none;" vertex="1" parent="OvlyZ-eLFth6ncI0WDdz-57">
          <mxGeometry x="20" y="144" width="120" height="60" as="geometry"/>
        </mxCell>
        <mxCell id="OvlyZ-eLFth6ncI0WDdz-55" value="" style="endArrow=none;html=1;" edge="1" parent="OvlyZ-eLFth6ncI0WDdz-57">
          <mxGeometry width="50" height="50" relative="1" as="geometry">
            <mxPoint x="-330" y="270" as="sourcePoint"/>
            <mxPoint x="310" y="270" as="targetPoint"/>
          </mxGeometry>
        </mxCell>
        <mxCell id="OvlyZ-eLFth6ncI0WDdz-76" value="页面完成所有控件加载" style="rounded=0;whiteSpace=wrap;html=1;fillColor=none;" vertex="1" parent="OvlyZ-eLFth6ncI0WDdz-57">
          <mxGeometry x="20" y="290" width="120" height="60" as="geometry"/>
        </mxCell>
        <mxCell id="OvlyZ-eLFth6ncI0WDdz-62" value="外部控件" style="swimlane;html=1;startSize=20;" vertex="1" parent="OvlyZ-eLFth6ncI0WDdz-53">
          <mxGeometry x="500" width="160" height="600" as="geometry">
            <mxRectangle x="20" width="30" height="480" as="alternateBounds"/>
          </mxGeometry>
        </mxCell>
        <mxCell id="OvlyZ-eLFth6ncI0WDdz-75" style="edgeStyle=orthogonalEdgeStyle;rounded=0;orthogonalLoop=1;jettySize=auto;html=1;exitX=1;exitY=0.5;exitDx=0;exitDy=0;entryX=0;entryY=0.5;entryDx=0;entryDy=0;" edge="1" parent="OvlyZ-eLFth6ncI0WDdz-53" source="OvlyZ-eLFth6ncI0WDdz-63" target="OvlyZ-eLFth6ncI0WDdz-72">
          <mxGeometry relative="1" as="geometry"/>
        </mxCell>
        <mxCell id="OvlyZ-eLFth6ncI0WDdz-58" value="" style="strokeWidth=2;html=1;shape=mxgraph.flowchart.annotation_2;align=left;labelPosition=right;pointerEvents=1;fillColor=none;" vertex="1" parent="1">
          <mxGeometry x="380" y="430" width="50" height="250" as="geometry"/>
        </mxCell>
        <mxCell id="OvlyZ-eLFth6ncI0WDdz-59" value="" style="strokeWidth=2;html=1;shape=mxgraph.flowchart.annotation_2;align=left;labelPosition=right;pointerEvents=1;fillColor=none;" vertex="1" parent="1">
          <mxGeometry x="380" y="690" width="50" height="320" as="geometry"/>
        </mxCell>
        <mxCell id="OvlyZ-eLFth6ncI0WDdz-60" value="控件初始化" style="text;html=1;align=center;verticalAlign=middle;resizable=0;points=[];;autosize=1;" vertex="1" parent="1">
          <mxGeometry x="310" y="545" width="80" height="20" as="geometry"/>
        </mxCell>
        <mxCell id="OvlyZ-eLFth6ncI0WDdz-61" value="控件交互期" style="text;html=1;align=center;verticalAlign=middle;resizable=0;points=[];;autosize=1;" vertex="1" parent="1">
          <mxGeometry x="300" y="840" width="80" height="20" as="geometry"/>
        </mxCell>
      </root>
    </mxGraphModel>
  </diagram>
</mxfile>
